G04 #@! TF.GenerationSoftware,KiCad,Pcbnew,(5.1.4)-1*
G04 #@! TF.CreationDate,2021-07-19T20:27:01-04:00*
G04 #@! TF.ProjectId,9301_to_74ls42,39333031-5f74-46f5-9f37-346c7334322e,rev?*
G04 #@! TF.SameCoordinates,Original*
G04 #@! TF.FileFunction,Soldermask,Bot*
G04 #@! TF.FilePolarity,Negative*
%FSLAX46Y46*%
G04 Gerber Fmt 4.6, Leading zero omitted, Abs format (unit mm)*
G04 Created by KiCad (PCBNEW (5.1.4)-1) date 2021-07-19 20:27:01*
%MOMM*%
%LPD*%
G04 APERTURE LIST*
%ADD10C,0.100000*%
G04 APERTURE END LIST*
D10*
G36*
X139916823Y-64441313D02*
G01*
X140077242Y-64489976D01*
X140209906Y-64560886D01*
X140225078Y-64568996D01*
X140354659Y-64675341D01*
X140461004Y-64804922D01*
X140461005Y-64804924D01*
X140540024Y-64952758D01*
X140588687Y-65113177D01*
X140605117Y-65280000D01*
X140588687Y-65446823D01*
X140540024Y-65607242D01*
X140469114Y-65739906D01*
X140461004Y-65755078D01*
X140354659Y-65884659D01*
X140225078Y-65991004D01*
X140225076Y-65991005D01*
X140077242Y-66070024D01*
X139916823Y-66118687D01*
X139791804Y-66131000D01*
X139708196Y-66131000D01*
X139583177Y-66118687D01*
X139422758Y-66070024D01*
X139274924Y-65991005D01*
X139274922Y-65991004D01*
X139145341Y-65884659D01*
X139038996Y-65755078D01*
X139030886Y-65739906D01*
X138959976Y-65607242D01*
X138911313Y-65446823D01*
X138894883Y-65280000D01*
X138911313Y-65113177D01*
X138959976Y-64952758D01*
X139038995Y-64804924D01*
X139038996Y-64804922D01*
X139145341Y-64675341D01*
X139274922Y-64568996D01*
X139290094Y-64560886D01*
X139422758Y-64489976D01*
X139583177Y-64441313D01*
X139708196Y-64429000D01*
X139791804Y-64429000D01*
X139916823Y-64441313D01*
X139916823Y-64441313D01*
G37*
G36*
X136416823Y-64441313D02*
G01*
X136577242Y-64489976D01*
X136709906Y-64560886D01*
X136725078Y-64568996D01*
X136854659Y-64675341D01*
X136961004Y-64804922D01*
X136961005Y-64804924D01*
X137040024Y-64952758D01*
X137088687Y-65113177D01*
X137105117Y-65280000D01*
X137088687Y-65446823D01*
X137040024Y-65607242D01*
X136969114Y-65739906D01*
X136961004Y-65755078D01*
X136854659Y-65884659D01*
X136725078Y-65991004D01*
X136725076Y-65991005D01*
X136577242Y-66070024D01*
X136416823Y-66118687D01*
X136291804Y-66131000D01*
X136208196Y-66131000D01*
X136083177Y-66118687D01*
X135922758Y-66070024D01*
X135774924Y-65991005D01*
X135774922Y-65991004D01*
X135645341Y-65884659D01*
X135538996Y-65755078D01*
X135530886Y-65739906D01*
X135459976Y-65607242D01*
X135411313Y-65446823D01*
X135394883Y-65280000D01*
X135411313Y-65113177D01*
X135459976Y-64952758D01*
X135538995Y-64804924D01*
X135538996Y-64804922D01*
X135645341Y-64675341D01*
X135774922Y-64568996D01*
X135790094Y-64560886D01*
X135922758Y-64489976D01*
X136083177Y-64441313D01*
X136208196Y-64429000D01*
X136291804Y-64429000D01*
X136416823Y-64441313D01*
X136416823Y-64441313D01*
G37*
G36*
X147536823Y-64441313D02*
G01*
X147697242Y-64489976D01*
X147829906Y-64560886D01*
X147845078Y-64568996D01*
X147974659Y-64675341D01*
X148081004Y-64804922D01*
X148081005Y-64804924D01*
X148160024Y-64952758D01*
X148208687Y-65113177D01*
X148225117Y-65280000D01*
X148208687Y-65446823D01*
X148160024Y-65607242D01*
X148089114Y-65739906D01*
X148081004Y-65755078D01*
X147974659Y-65884659D01*
X147845078Y-65991004D01*
X147845076Y-65991005D01*
X147697242Y-66070024D01*
X147536823Y-66118687D01*
X147411804Y-66131000D01*
X147328196Y-66131000D01*
X147203177Y-66118687D01*
X147042758Y-66070024D01*
X146894924Y-65991005D01*
X146894922Y-65991004D01*
X146765341Y-65884659D01*
X146658996Y-65755078D01*
X146650886Y-65739906D01*
X146579976Y-65607242D01*
X146531313Y-65446823D01*
X146514883Y-65280000D01*
X146531313Y-65113177D01*
X146579976Y-64952758D01*
X146658995Y-64804924D01*
X146658996Y-64804922D01*
X146765341Y-64675341D01*
X146894922Y-64568996D01*
X146910094Y-64560886D01*
X147042758Y-64489976D01*
X147203177Y-64441313D01*
X147328196Y-64429000D01*
X147411804Y-64429000D01*
X147536823Y-64441313D01*
X147536823Y-64441313D01*
G37*
G36*
X144036823Y-64441313D02*
G01*
X144197242Y-64489976D01*
X144329906Y-64560886D01*
X144345078Y-64568996D01*
X144474659Y-64675341D01*
X144581004Y-64804922D01*
X144581005Y-64804924D01*
X144660024Y-64952758D01*
X144708687Y-65113177D01*
X144725117Y-65280000D01*
X144708687Y-65446823D01*
X144660024Y-65607242D01*
X144589114Y-65739906D01*
X144581004Y-65755078D01*
X144474659Y-65884659D01*
X144345078Y-65991004D01*
X144345076Y-65991005D01*
X144197242Y-66070024D01*
X144036823Y-66118687D01*
X143911804Y-66131000D01*
X143828196Y-66131000D01*
X143703177Y-66118687D01*
X143542758Y-66070024D01*
X143394924Y-65991005D01*
X143394922Y-65991004D01*
X143265341Y-65884659D01*
X143158996Y-65755078D01*
X143150886Y-65739906D01*
X143079976Y-65607242D01*
X143031313Y-65446823D01*
X143014883Y-65280000D01*
X143031313Y-65113177D01*
X143079976Y-64952758D01*
X143158995Y-64804924D01*
X143158996Y-64804922D01*
X143265341Y-64675341D01*
X143394922Y-64568996D01*
X143410094Y-64560886D01*
X143542758Y-64489976D01*
X143703177Y-64441313D01*
X143828196Y-64429000D01*
X143911804Y-64429000D01*
X144036823Y-64441313D01*
X144036823Y-64441313D01*
G37*
G36*
X136416823Y-61901313D02*
G01*
X136577242Y-61949976D01*
X136709906Y-62020886D01*
X136725078Y-62028996D01*
X136854659Y-62135341D01*
X136961004Y-62264922D01*
X136961005Y-62264924D01*
X137040024Y-62412758D01*
X137088687Y-62573177D01*
X137105117Y-62740000D01*
X137088687Y-62906823D01*
X137040024Y-63067242D01*
X136969114Y-63199906D01*
X136961004Y-63215078D01*
X136854659Y-63344659D01*
X136725078Y-63451004D01*
X136725076Y-63451005D01*
X136577242Y-63530024D01*
X136416823Y-63578687D01*
X136291804Y-63591000D01*
X136208196Y-63591000D01*
X136083177Y-63578687D01*
X135922758Y-63530024D01*
X135774924Y-63451005D01*
X135774922Y-63451004D01*
X135645341Y-63344659D01*
X135538996Y-63215078D01*
X135530886Y-63199906D01*
X135459976Y-63067242D01*
X135411313Y-62906823D01*
X135394883Y-62740000D01*
X135411313Y-62573177D01*
X135459976Y-62412758D01*
X135538995Y-62264924D01*
X135538996Y-62264922D01*
X135645341Y-62135341D01*
X135774922Y-62028996D01*
X135790094Y-62020886D01*
X135922758Y-61949976D01*
X136083177Y-61901313D01*
X136208196Y-61889000D01*
X136291804Y-61889000D01*
X136416823Y-61901313D01*
X136416823Y-61901313D01*
G37*
G36*
X139916823Y-61901313D02*
G01*
X140077242Y-61949976D01*
X140209906Y-62020886D01*
X140225078Y-62028996D01*
X140354659Y-62135341D01*
X140461004Y-62264922D01*
X140461005Y-62264924D01*
X140540024Y-62412758D01*
X140588687Y-62573177D01*
X140605117Y-62740000D01*
X140588687Y-62906823D01*
X140540024Y-63067242D01*
X140469114Y-63199906D01*
X140461004Y-63215078D01*
X140354659Y-63344659D01*
X140225078Y-63451004D01*
X140225076Y-63451005D01*
X140077242Y-63530024D01*
X139916823Y-63578687D01*
X139791804Y-63591000D01*
X139708196Y-63591000D01*
X139583177Y-63578687D01*
X139422758Y-63530024D01*
X139274924Y-63451005D01*
X139274922Y-63451004D01*
X139145341Y-63344659D01*
X139038996Y-63215078D01*
X139030886Y-63199906D01*
X138959976Y-63067242D01*
X138911313Y-62906823D01*
X138894883Y-62740000D01*
X138911313Y-62573177D01*
X138959976Y-62412758D01*
X139038995Y-62264924D01*
X139038996Y-62264922D01*
X139145341Y-62135341D01*
X139274922Y-62028996D01*
X139290094Y-62020886D01*
X139422758Y-61949976D01*
X139583177Y-61901313D01*
X139708196Y-61889000D01*
X139791804Y-61889000D01*
X139916823Y-61901313D01*
X139916823Y-61901313D01*
G37*
G36*
X144036823Y-61901313D02*
G01*
X144197242Y-61949976D01*
X144329906Y-62020886D01*
X144345078Y-62028996D01*
X144474659Y-62135341D01*
X144581004Y-62264922D01*
X144581005Y-62264924D01*
X144660024Y-62412758D01*
X144708687Y-62573177D01*
X144725117Y-62740000D01*
X144708687Y-62906823D01*
X144660024Y-63067242D01*
X144589114Y-63199906D01*
X144581004Y-63215078D01*
X144474659Y-63344659D01*
X144345078Y-63451004D01*
X144345076Y-63451005D01*
X144197242Y-63530024D01*
X144036823Y-63578687D01*
X143911804Y-63591000D01*
X143828196Y-63591000D01*
X143703177Y-63578687D01*
X143542758Y-63530024D01*
X143394924Y-63451005D01*
X143394922Y-63451004D01*
X143265341Y-63344659D01*
X143158996Y-63215078D01*
X143150886Y-63199906D01*
X143079976Y-63067242D01*
X143031313Y-62906823D01*
X143014883Y-62740000D01*
X143031313Y-62573177D01*
X143079976Y-62412758D01*
X143158995Y-62264924D01*
X143158996Y-62264922D01*
X143265341Y-62135341D01*
X143394922Y-62028996D01*
X143410094Y-62020886D01*
X143542758Y-61949976D01*
X143703177Y-61901313D01*
X143828196Y-61889000D01*
X143911804Y-61889000D01*
X144036823Y-61901313D01*
X144036823Y-61901313D01*
G37*
G36*
X147536823Y-61901313D02*
G01*
X147697242Y-61949976D01*
X147829906Y-62020886D01*
X147845078Y-62028996D01*
X147974659Y-62135341D01*
X148081004Y-62264922D01*
X148081005Y-62264924D01*
X148160024Y-62412758D01*
X148208687Y-62573177D01*
X148225117Y-62740000D01*
X148208687Y-62906823D01*
X148160024Y-63067242D01*
X148089114Y-63199906D01*
X148081004Y-63215078D01*
X147974659Y-63344659D01*
X147845078Y-63451004D01*
X147845076Y-63451005D01*
X147697242Y-63530024D01*
X147536823Y-63578687D01*
X147411804Y-63591000D01*
X147328196Y-63591000D01*
X147203177Y-63578687D01*
X147042758Y-63530024D01*
X146894924Y-63451005D01*
X146894922Y-63451004D01*
X146765341Y-63344659D01*
X146658996Y-63215078D01*
X146650886Y-63199906D01*
X146579976Y-63067242D01*
X146531313Y-62906823D01*
X146514883Y-62740000D01*
X146531313Y-62573177D01*
X146579976Y-62412758D01*
X146658995Y-62264924D01*
X146658996Y-62264922D01*
X146765341Y-62135341D01*
X146894922Y-62028996D01*
X146910094Y-62020886D01*
X147042758Y-61949976D01*
X147203177Y-61901313D01*
X147328196Y-61889000D01*
X147411804Y-61889000D01*
X147536823Y-61901313D01*
X147536823Y-61901313D01*
G37*
G36*
X136416823Y-59361313D02*
G01*
X136577242Y-59409976D01*
X136709906Y-59480886D01*
X136725078Y-59488996D01*
X136854659Y-59595341D01*
X136961004Y-59724922D01*
X136961005Y-59724924D01*
X137040024Y-59872758D01*
X137088687Y-60033177D01*
X137105117Y-60200000D01*
X137088687Y-60366823D01*
X137040024Y-60527242D01*
X136969114Y-60659906D01*
X136961004Y-60675078D01*
X136854659Y-60804659D01*
X136725078Y-60911004D01*
X136725076Y-60911005D01*
X136577242Y-60990024D01*
X136416823Y-61038687D01*
X136291804Y-61051000D01*
X136208196Y-61051000D01*
X136083177Y-61038687D01*
X135922758Y-60990024D01*
X135774924Y-60911005D01*
X135774922Y-60911004D01*
X135645341Y-60804659D01*
X135538996Y-60675078D01*
X135530886Y-60659906D01*
X135459976Y-60527242D01*
X135411313Y-60366823D01*
X135394883Y-60200000D01*
X135411313Y-60033177D01*
X135459976Y-59872758D01*
X135538995Y-59724924D01*
X135538996Y-59724922D01*
X135645341Y-59595341D01*
X135774922Y-59488996D01*
X135790094Y-59480886D01*
X135922758Y-59409976D01*
X136083177Y-59361313D01*
X136208196Y-59349000D01*
X136291804Y-59349000D01*
X136416823Y-59361313D01*
X136416823Y-59361313D01*
G37*
G36*
X147536823Y-59361313D02*
G01*
X147697242Y-59409976D01*
X147829906Y-59480886D01*
X147845078Y-59488996D01*
X147974659Y-59595341D01*
X148081004Y-59724922D01*
X148081005Y-59724924D01*
X148160024Y-59872758D01*
X148208687Y-60033177D01*
X148225117Y-60200000D01*
X148208687Y-60366823D01*
X148160024Y-60527242D01*
X148089114Y-60659906D01*
X148081004Y-60675078D01*
X147974659Y-60804659D01*
X147845078Y-60911004D01*
X147845076Y-60911005D01*
X147697242Y-60990024D01*
X147536823Y-61038687D01*
X147411804Y-61051000D01*
X147328196Y-61051000D01*
X147203177Y-61038687D01*
X147042758Y-60990024D01*
X146894924Y-60911005D01*
X146894922Y-60911004D01*
X146765341Y-60804659D01*
X146658996Y-60675078D01*
X146650886Y-60659906D01*
X146579976Y-60527242D01*
X146531313Y-60366823D01*
X146514883Y-60200000D01*
X146531313Y-60033177D01*
X146579976Y-59872758D01*
X146658995Y-59724924D01*
X146658996Y-59724922D01*
X146765341Y-59595341D01*
X146894922Y-59488996D01*
X146910094Y-59480886D01*
X147042758Y-59409976D01*
X147203177Y-59361313D01*
X147328196Y-59349000D01*
X147411804Y-59349000D01*
X147536823Y-59361313D01*
X147536823Y-59361313D01*
G37*
G36*
X139916823Y-59361313D02*
G01*
X140077242Y-59409976D01*
X140209906Y-59480886D01*
X140225078Y-59488996D01*
X140354659Y-59595341D01*
X140461004Y-59724922D01*
X140461005Y-59724924D01*
X140540024Y-59872758D01*
X140588687Y-60033177D01*
X140605117Y-60200000D01*
X140588687Y-60366823D01*
X140540024Y-60527242D01*
X140469114Y-60659906D01*
X140461004Y-60675078D01*
X140354659Y-60804659D01*
X140225078Y-60911004D01*
X140225076Y-60911005D01*
X140077242Y-60990024D01*
X139916823Y-61038687D01*
X139791804Y-61051000D01*
X139708196Y-61051000D01*
X139583177Y-61038687D01*
X139422758Y-60990024D01*
X139274924Y-60911005D01*
X139274922Y-60911004D01*
X139145341Y-60804659D01*
X139038996Y-60675078D01*
X139030886Y-60659906D01*
X138959976Y-60527242D01*
X138911313Y-60366823D01*
X138894883Y-60200000D01*
X138911313Y-60033177D01*
X138959976Y-59872758D01*
X139038995Y-59724924D01*
X139038996Y-59724922D01*
X139145341Y-59595341D01*
X139274922Y-59488996D01*
X139290094Y-59480886D01*
X139422758Y-59409976D01*
X139583177Y-59361313D01*
X139708196Y-59349000D01*
X139791804Y-59349000D01*
X139916823Y-59361313D01*
X139916823Y-59361313D01*
G37*
G36*
X144036823Y-59361313D02*
G01*
X144197242Y-59409976D01*
X144329906Y-59480886D01*
X144345078Y-59488996D01*
X144474659Y-59595341D01*
X144581004Y-59724922D01*
X144581005Y-59724924D01*
X144660024Y-59872758D01*
X144708687Y-60033177D01*
X144725117Y-60200000D01*
X144708687Y-60366823D01*
X144660024Y-60527242D01*
X144589114Y-60659906D01*
X144581004Y-60675078D01*
X144474659Y-60804659D01*
X144345078Y-60911004D01*
X144345076Y-60911005D01*
X144197242Y-60990024D01*
X144036823Y-61038687D01*
X143911804Y-61051000D01*
X143828196Y-61051000D01*
X143703177Y-61038687D01*
X143542758Y-60990024D01*
X143394924Y-60911005D01*
X143394922Y-60911004D01*
X143265341Y-60804659D01*
X143158996Y-60675078D01*
X143150886Y-60659906D01*
X143079976Y-60527242D01*
X143031313Y-60366823D01*
X143014883Y-60200000D01*
X143031313Y-60033177D01*
X143079976Y-59872758D01*
X143158995Y-59724924D01*
X143158996Y-59724922D01*
X143265341Y-59595341D01*
X143394922Y-59488996D01*
X143410094Y-59480886D01*
X143542758Y-59409976D01*
X143703177Y-59361313D01*
X143828196Y-59349000D01*
X143911804Y-59349000D01*
X144036823Y-59361313D01*
X144036823Y-59361313D01*
G37*
G36*
X139916823Y-56821313D02*
G01*
X140077242Y-56869976D01*
X140209906Y-56940886D01*
X140225078Y-56948996D01*
X140354659Y-57055341D01*
X140461004Y-57184922D01*
X140461005Y-57184924D01*
X140540024Y-57332758D01*
X140588687Y-57493177D01*
X140605117Y-57660000D01*
X140588687Y-57826823D01*
X140540024Y-57987242D01*
X140469114Y-58119906D01*
X140461004Y-58135078D01*
X140354659Y-58264659D01*
X140225078Y-58371004D01*
X140225076Y-58371005D01*
X140077242Y-58450024D01*
X139916823Y-58498687D01*
X139791804Y-58511000D01*
X139708196Y-58511000D01*
X139583177Y-58498687D01*
X139422758Y-58450024D01*
X139274924Y-58371005D01*
X139274922Y-58371004D01*
X139145341Y-58264659D01*
X139038996Y-58135078D01*
X139030886Y-58119906D01*
X138959976Y-57987242D01*
X138911313Y-57826823D01*
X138894883Y-57660000D01*
X138911313Y-57493177D01*
X138959976Y-57332758D01*
X139038995Y-57184924D01*
X139038996Y-57184922D01*
X139145341Y-57055341D01*
X139274922Y-56948996D01*
X139290094Y-56940886D01*
X139422758Y-56869976D01*
X139583177Y-56821313D01*
X139708196Y-56809000D01*
X139791804Y-56809000D01*
X139916823Y-56821313D01*
X139916823Y-56821313D01*
G37*
G36*
X144036823Y-56821313D02*
G01*
X144197242Y-56869976D01*
X144329906Y-56940886D01*
X144345078Y-56948996D01*
X144474659Y-57055341D01*
X144581004Y-57184922D01*
X144581005Y-57184924D01*
X144660024Y-57332758D01*
X144708687Y-57493177D01*
X144725117Y-57660000D01*
X144708687Y-57826823D01*
X144660024Y-57987242D01*
X144589114Y-58119906D01*
X144581004Y-58135078D01*
X144474659Y-58264659D01*
X144345078Y-58371004D01*
X144345076Y-58371005D01*
X144197242Y-58450024D01*
X144036823Y-58498687D01*
X143911804Y-58511000D01*
X143828196Y-58511000D01*
X143703177Y-58498687D01*
X143542758Y-58450024D01*
X143394924Y-58371005D01*
X143394922Y-58371004D01*
X143265341Y-58264659D01*
X143158996Y-58135078D01*
X143150886Y-58119906D01*
X143079976Y-57987242D01*
X143031313Y-57826823D01*
X143014883Y-57660000D01*
X143031313Y-57493177D01*
X143079976Y-57332758D01*
X143158995Y-57184924D01*
X143158996Y-57184922D01*
X143265341Y-57055341D01*
X143394922Y-56948996D01*
X143410094Y-56940886D01*
X143542758Y-56869976D01*
X143703177Y-56821313D01*
X143828196Y-56809000D01*
X143911804Y-56809000D01*
X144036823Y-56821313D01*
X144036823Y-56821313D01*
G37*
G36*
X147536823Y-56821313D02*
G01*
X147697242Y-56869976D01*
X147829906Y-56940886D01*
X147845078Y-56948996D01*
X147974659Y-57055341D01*
X148081004Y-57184922D01*
X148081005Y-57184924D01*
X148160024Y-57332758D01*
X148208687Y-57493177D01*
X148225117Y-57660000D01*
X148208687Y-57826823D01*
X148160024Y-57987242D01*
X148089114Y-58119906D01*
X148081004Y-58135078D01*
X147974659Y-58264659D01*
X147845078Y-58371004D01*
X147845076Y-58371005D01*
X147697242Y-58450024D01*
X147536823Y-58498687D01*
X147411804Y-58511000D01*
X147328196Y-58511000D01*
X147203177Y-58498687D01*
X147042758Y-58450024D01*
X146894924Y-58371005D01*
X146894922Y-58371004D01*
X146765341Y-58264659D01*
X146658996Y-58135078D01*
X146650886Y-58119906D01*
X146579976Y-57987242D01*
X146531313Y-57826823D01*
X146514883Y-57660000D01*
X146531313Y-57493177D01*
X146579976Y-57332758D01*
X146658995Y-57184924D01*
X146658996Y-57184922D01*
X146765341Y-57055341D01*
X146894922Y-56948996D01*
X146910094Y-56940886D01*
X147042758Y-56869976D01*
X147203177Y-56821313D01*
X147328196Y-56809000D01*
X147411804Y-56809000D01*
X147536823Y-56821313D01*
X147536823Y-56821313D01*
G37*
G36*
X136416823Y-56821313D02*
G01*
X136577242Y-56869976D01*
X136709906Y-56940886D01*
X136725078Y-56948996D01*
X136854659Y-57055341D01*
X136961004Y-57184922D01*
X136961005Y-57184924D01*
X137040024Y-57332758D01*
X137088687Y-57493177D01*
X137105117Y-57660000D01*
X137088687Y-57826823D01*
X137040024Y-57987242D01*
X136969114Y-58119906D01*
X136961004Y-58135078D01*
X136854659Y-58264659D01*
X136725078Y-58371004D01*
X136725076Y-58371005D01*
X136577242Y-58450024D01*
X136416823Y-58498687D01*
X136291804Y-58511000D01*
X136208196Y-58511000D01*
X136083177Y-58498687D01*
X135922758Y-58450024D01*
X135774924Y-58371005D01*
X135774922Y-58371004D01*
X135645341Y-58264659D01*
X135538996Y-58135078D01*
X135530886Y-58119906D01*
X135459976Y-57987242D01*
X135411313Y-57826823D01*
X135394883Y-57660000D01*
X135411313Y-57493177D01*
X135459976Y-57332758D01*
X135538995Y-57184924D01*
X135538996Y-57184922D01*
X135645341Y-57055341D01*
X135774922Y-56948996D01*
X135790094Y-56940886D01*
X135922758Y-56869976D01*
X136083177Y-56821313D01*
X136208196Y-56809000D01*
X136291804Y-56809000D01*
X136416823Y-56821313D01*
X136416823Y-56821313D01*
G37*
G36*
X139916823Y-54281313D02*
G01*
X140077242Y-54329976D01*
X140209906Y-54400886D01*
X140225078Y-54408996D01*
X140354659Y-54515341D01*
X140461004Y-54644922D01*
X140461005Y-54644924D01*
X140540024Y-54792758D01*
X140588687Y-54953177D01*
X140605117Y-55120000D01*
X140588687Y-55286823D01*
X140540024Y-55447242D01*
X140469114Y-55579906D01*
X140461004Y-55595078D01*
X140354659Y-55724659D01*
X140225078Y-55831004D01*
X140225076Y-55831005D01*
X140077242Y-55910024D01*
X139916823Y-55958687D01*
X139791804Y-55971000D01*
X139708196Y-55971000D01*
X139583177Y-55958687D01*
X139422758Y-55910024D01*
X139274924Y-55831005D01*
X139274922Y-55831004D01*
X139145341Y-55724659D01*
X139038996Y-55595078D01*
X139030886Y-55579906D01*
X138959976Y-55447242D01*
X138911313Y-55286823D01*
X138894883Y-55120000D01*
X138911313Y-54953177D01*
X138959976Y-54792758D01*
X139038995Y-54644924D01*
X139038996Y-54644922D01*
X139145341Y-54515341D01*
X139274922Y-54408996D01*
X139290094Y-54400886D01*
X139422758Y-54329976D01*
X139583177Y-54281313D01*
X139708196Y-54269000D01*
X139791804Y-54269000D01*
X139916823Y-54281313D01*
X139916823Y-54281313D01*
G37*
G36*
X144036823Y-54281313D02*
G01*
X144197242Y-54329976D01*
X144329906Y-54400886D01*
X144345078Y-54408996D01*
X144474659Y-54515341D01*
X144581004Y-54644922D01*
X144581005Y-54644924D01*
X144660024Y-54792758D01*
X144708687Y-54953177D01*
X144725117Y-55120000D01*
X144708687Y-55286823D01*
X144660024Y-55447242D01*
X144589114Y-55579906D01*
X144581004Y-55595078D01*
X144474659Y-55724659D01*
X144345078Y-55831004D01*
X144345076Y-55831005D01*
X144197242Y-55910024D01*
X144036823Y-55958687D01*
X143911804Y-55971000D01*
X143828196Y-55971000D01*
X143703177Y-55958687D01*
X143542758Y-55910024D01*
X143394924Y-55831005D01*
X143394922Y-55831004D01*
X143265341Y-55724659D01*
X143158996Y-55595078D01*
X143150886Y-55579906D01*
X143079976Y-55447242D01*
X143031313Y-55286823D01*
X143014883Y-55120000D01*
X143031313Y-54953177D01*
X143079976Y-54792758D01*
X143158995Y-54644924D01*
X143158996Y-54644922D01*
X143265341Y-54515341D01*
X143394922Y-54408996D01*
X143410094Y-54400886D01*
X143542758Y-54329976D01*
X143703177Y-54281313D01*
X143828196Y-54269000D01*
X143911804Y-54269000D01*
X144036823Y-54281313D01*
X144036823Y-54281313D01*
G37*
G36*
X136416823Y-54281313D02*
G01*
X136577242Y-54329976D01*
X136709906Y-54400886D01*
X136725078Y-54408996D01*
X136854659Y-54515341D01*
X136961004Y-54644922D01*
X136961005Y-54644924D01*
X137040024Y-54792758D01*
X137088687Y-54953177D01*
X137105117Y-55120000D01*
X137088687Y-55286823D01*
X137040024Y-55447242D01*
X136969114Y-55579906D01*
X136961004Y-55595078D01*
X136854659Y-55724659D01*
X136725078Y-55831004D01*
X136725076Y-55831005D01*
X136577242Y-55910024D01*
X136416823Y-55958687D01*
X136291804Y-55971000D01*
X136208196Y-55971000D01*
X136083177Y-55958687D01*
X135922758Y-55910024D01*
X135774924Y-55831005D01*
X135774922Y-55831004D01*
X135645341Y-55724659D01*
X135538996Y-55595078D01*
X135530886Y-55579906D01*
X135459976Y-55447242D01*
X135411313Y-55286823D01*
X135394883Y-55120000D01*
X135411313Y-54953177D01*
X135459976Y-54792758D01*
X135538995Y-54644924D01*
X135538996Y-54644922D01*
X135645341Y-54515341D01*
X135774922Y-54408996D01*
X135790094Y-54400886D01*
X135922758Y-54329976D01*
X136083177Y-54281313D01*
X136208196Y-54269000D01*
X136291804Y-54269000D01*
X136416823Y-54281313D01*
X136416823Y-54281313D01*
G37*
G36*
X147536823Y-54281313D02*
G01*
X147697242Y-54329976D01*
X147829906Y-54400886D01*
X147845078Y-54408996D01*
X147974659Y-54515341D01*
X148081004Y-54644922D01*
X148081005Y-54644924D01*
X148160024Y-54792758D01*
X148208687Y-54953177D01*
X148225117Y-55120000D01*
X148208687Y-55286823D01*
X148160024Y-55447242D01*
X148089114Y-55579906D01*
X148081004Y-55595078D01*
X147974659Y-55724659D01*
X147845078Y-55831004D01*
X147845076Y-55831005D01*
X147697242Y-55910024D01*
X147536823Y-55958687D01*
X147411804Y-55971000D01*
X147328196Y-55971000D01*
X147203177Y-55958687D01*
X147042758Y-55910024D01*
X146894924Y-55831005D01*
X146894922Y-55831004D01*
X146765341Y-55724659D01*
X146658996Y-55595078D01*
X146650886Y-55579906D01*
X146579976Y-55447242D01*
X146531313Y-55286823D01*
X146514883Y-55120000D01*
X146531313Y-54953177D01*
X146579976Y-54792758D01*
X146658995Y-54644924D01*
X146658996Y-54644922D01*
X146765341Y-54515341D01*
X146894922Y-54408996D01*
X146910094Y-54400886D01*
X147042758Y-54329976D01*
X147203177Y-54281313D01*
X147328196Y-54269000D01*
X147411804Y-54269000D01*
X147536823Y-54281313D01*
X147536823Y-54281313D01*
G37*
G36*
X136416823Y-51741313D02*
G01*
X136577242Y-51789976D01*
X136709906Y-51860886D01*
X136725078Y-51868996D01*
X136854659Y-51975341D01*
X136961004Y-52104922D01*
X136961005Y-52104924D01*
X137040024Y-52252758D01*
X137088687Y-52413177D01*
X137105117Y-52580000D01*
X137088687Y-52746823D01*
X137040024Y-52907242D01*
X136969114Y-53039906D01*
X136961004Y-53055078D01*
X136854659Y-53184659D01*
X136725078Y-53291004D01*
X136725076Y-53291005D01*
X136577242Y-53370024D01*
X136416823Y-53418687D01*
X136291804Y-53431000D01*
X136208196Y-53431000D01*
X136083177Y-53418687D01*
X135922758Y-53370024D01*
X135774924Y-53291005D01*
X135774922Y-53291004D01*
X135645341Y-53184659D01*
X135538996Y-53055078D01*
X135530886Y-53039906D01*
X135459976Y-52907242D01*
X135411313Y-52746823D01*
X135394883Y-52580000D01*
X135411313Y-52413177D01*
X135459976Y-52252758D01*
X135538995Y-52104924D01*
X135538996Y-52104922D01*
X135645341Y-51975341D01*
X135774922Y-51868996D01*
X135790094Y-51860886D01*
X135922758Y-51789976D01*
X136083177Y-51741313D01*
X136208196Y-51729000D01*
X136291804Y-51729000D01*
X136416823Y-51741313D01*
X136416823Y-51741313D01*
G37*
G36*
X147536823Y-51741313D02*
G01*
X147697242Y-51789976D01*
X147829906Y-51860886D01*
X147845078Y-51868996D01*
X147974659Y-51975341D01*
X148081004Y-52104922D01*
X148081005Y-52104924D01*
X148160024Y-52252758D01*
X148208687Y-52413177D01*
X148225117Y-52580000D01*
X148208687Y-52746823D01*
X148160024Y-52907242D01*
X148089114Y-53039906D01*
X148081004Y-53055078D01*
X147974659Y-53184659D01*
X147845078Y-53291004D01*
X147845076Y-53291005D01*
X147697242Y-53370024D01*
X147536823Y-53418687D01*
X147411804Y-53431000D01*
X147328196Y-53431000D01*
X147203177Y-53418687D01*
X147042758Y-53370024D01*
X146894924Y-53291005D01*
X146894922Y-53291004D01*
X146765341Y-53184659D01*
X146658996Y-53055078D01*
X146650886Y-53039906D01*
X146579976Y-52907242D01*
X146531313Y-52746823D01*
X146514883Y-52580000D01*
X146531313Y-52413177D01*
X146579976Y-52252758D01*
X146658995Y-52104924D01*
X146658996Y-52104922D01*
X146765341Y-51975341D01*
X146894922Y-51868996D01*
X146910094Y-51860886D01*
X147042758Y-51789976D01*
X147203177Y-51741313D01*
X147328196Y-51729000D01*
X147411804Y-51729000D01*
X147536823Y-51741313D01*
X147536823Y-51741313D01*
G37*
G36*
X144036823Y-51741313D02*
G01*
X144197242Y-51789976D01*
X144329906Y-51860886D01*
X144345078Y-51868996D01*
X144474659Y-51975341D01*
X144581004Y-52104922D01*
X144581005Y-52104924D01*
X144660024Y-52252758D01*
X144708687Y-52413177D01*
X144725117Y-52580000D01*
X144708687Y-52746823D01*
X144660024Y-52907242D01*
X144589114Y-53039906D01*
X144581004Y-53055078D01*
X144474659Y-53184659D01*
X144345078Y-53291004D01*
X144345076Y-53291005D01*
X144197242Y-53370024D01*
X144036823Y-53418687D01*
X143911804Y-53431000D01*
X143828196Y-53431000D01*
X143703177Y-53418687D01*
X143542758Y-53370024D01*
X143394924Y-53291005D01*
X143394922Y-53291004D01*
X143265341Y-53184659D01*
X143158996Y-53055078D01*
X143150886Y-53039906D01*
X143079976Y-52907242D01*
X143031313Y-52746823D01*
X143014883Y-52580000D01*
X143031313Y-52413177D01*
X143079976Y-52252758D01*
X143158995Y-52104924D01*
X143158996Y-52104922D01*
X143265341Y-51975341D01*
X143394922Y-51868996D01*
X143410094Y-51860886D01*
X143542758Y-51789976D01*
X143703177Y-51741313D01*
X143828196Y-51729000D01*
X143911804Y-51729000D01*
X144036823Y-51741313D01*
X144036823Y-51741313D01*
G37*
G36*
X139916823Y-51741313D02*
G01*
X140077242Y-51789976D01*
X140209906Y-51860886D01*
X140225078Y-51868996D01*
X140354659Y-51975341D01*
X140461004Y-52104922D01*
X140461005Y-52104924D01*
X140540024Y-52252758D01*
X140588687Y-52413177D01*
X140605117Y-52580000D01*
X140588687Y-52746823D01*
X140540024Y-52907242D01*
X140469114Y-53039906D01*
X140461004Y-53055078D01*
X140354659Y-53184659D01*
X140225078Y-53291004D01*
X140225076Y-53291005D01*
X140077242Y-53370024D01*
X139916823Y-53418687D01*
X139791804Y-53431000D01*
X139708196Y-53431000D01*
X139583177Y-53418687D01*
X139422758Y-53370024D01*
X139274924Y-53291005D01*
X139274922Y-53291004D01*
X139145341Y-53184659D01*
X139038996Y-53055078D01*
X139030886Y-53039906D01*
X138959976Y-52907242D01*
X138911313Y-52746823D01*
X138894883Y-52580000D01*
X138911313Y-52413177D01*
X138959976Y-52252758D01*
X139038995Y-52104924D01*
X139038996Y-52104922D01*
X139145341Y-51975341D01*
X139274922Y-51868996D01*
X139290094Y-51860886D01*
X139422758Y-51789976D01*
X139583177Y-51741313D01*
X139708196Y-51729000D01*
X139791804Y-51729000D01*
X139916823Y-51741313D01*
X139916823Y-51741313D01*
G37*
G36*
X147536823Y-49201313D02*
G01*
X147697242Y-49249976D01*
X147829906Y-49320886D01*
X147845078Y-49328996D01*
X147974659Y-49435341D01*
X148081004Y-49564922D01*
X148081005Y-49564924D01*
X148160024Y-49712758D01*
X148208687Y-49873177D01*
X148225117Y-50040000D01*
X148208687Y-50206823D01*
X148160024Y-50367242D01*
X148089114Y-50499906D01*
X148081004Y-50515078D01*
X147974659Y-50644659D01*
X147845078Y-50751004D01*
X147845076Y-50751005D01*
X147697242Y-50830024D01*
X147536823Y-50878687D01*
X147411804Y-50891000D01*
X147328196Y-50891000D01*
X147203177Y-50878687D01*
X147042758Y-50830024D01*
X146894924Y-50751005D01*
X146894922Y-50751004D01*
X146765341Y-50644659D01*
X146658996Y-50515078D01*
X146650886Y-50499906D01*
X146579976Y-50367242D01*
X146531313Y-50206823D01*
X146514883Y-50040000D01*
X146531313Y-49873177D01*
X146579976Y-49712758D01*
X146658995Y-49564924D01*
X146658996Y-49564922D01*
X146765341Y-49435341D01*
X146894922Y-49328996D01*
X146910094Y-49320886D01*
X147042758Y-49249976D01*
X147203177Y-49201313D01*
X147328196Y-49189000D01*
X147411804Y-49189000D01*
X147536823Y-49201313D01*
X147536823Y-49201313D01*
G37*
G36*
X136416823Y-49201313D02*
G01*
X136577242Y-49249976D01*
X136709906Y-49320886D01*
X136725078Y-49328996D01*
X136854659Y-49435341D01*
X136961004Y-49564922D01*
X136961005Y-49564924D01*
X137040024Y-49712758D01*
X137088687Y-49873177D01*
X137105117Y-50040000D01*
X137088687Y-50206823D01*
X137040024Y-50367242D01*
X136969114Y-50499906D01*
X136961004Y-50515078D01*
X136854659Y-50644659D01*
X136725078Y-50751004D01*
X136725076Y-50751005D01*
X136577242Y-50830024D01*
X136416823Y-50878687D01*
X136291804Y-50891000D01*
X136208196Y-50891000D01*
X136083177Y-50878687D01*
X135922758Y-50830024D01*
X135774924Y-50751005D01*
X135774922Y-50751004D01*
X135645341Y-50644659D01*
X135538996Y-50515078D01*
X135530886Y-50499906D01*
X135459976Y-50367242D01*
X135411313Y-50206823D01*
X135394883Y-50040000D01*
X135411313Y-49873177D01*
X135459976Y-49712758D01*
X135538995Y-49564924D01*
X135538996Y-49564922D01*
X135645341Y-49435341D01*
X135774922Y-49328996D01*
X135790094Y-49320886D01*
X135922758Y-49249976D01*
X136083177Y-49201313D01*
X136208196Y-49189000D01*
X136291804Y-49189000D01*
X136416823Y-49201313D01*
X136416823Y-49201313D01*
G37*
G36*
X144036823Y-49201313D02*
G01*
X144197242Y-49249976D01*
X144329906Y-49320886D01*
X144345078Y-49328996D01*
X144474659Y-49435341D01*
X144581004Y-49564922D01*
X144581005Y-49564924D01*
X144660024Y-49712758D01*
X144708687Y-49873177D01*
X144725117Y-50040000D01*
X144708687Y-50206823D01*
X144660024Y-50367242D01*
X144589114Y-50499906D01*
X144581004Y-50515078D01*
X144474659Y-50644659D01*
X144345078Y-50751004D01*
X144345076Y-50751005D01*
X144197242Y-50830024D01*
X144036823Y-50878687D01*
X143911804Y-50891000D01*
X143828196Y-50891000D01*
X143703177Y-50878687D01*
X143542758Y-50830024D01*
X143394924Y-50751005D01*
X143394922Y-50751004D01*
X143265341Y-50644659D01*
X143158996Y-50515078D01*
X143150886Y-50499906D01*
X143079976Y-50367242D01*
X143031313Y-50206823D01*
X143014883Y-50040000D01*
X143031313Y-49873177D01*
X143079976Y-49712758D01*
X143158995Y-49564924D01*
X143158996Y-49564922D01*
X143265341Y-49435341D01*
X143394922Y-49328996D01*
X143410094Y-49320886D01*
X143542758Y-49249976D01*
X143703177Y-49201313D01*
X143828196Y-49189000D01*
X143911804Y-49189000D01*
X144036823Y-49201313D01*
X144036823Y-49201313D01*
G37*
G36*
X139916823Y-49201313D02*
G01*
X140077242Y-49249976D01*
X140209906Y-49320886D01*
X140225078Y-49328996D01*
X140354659Y-49435341D01*
X140461004Y-49564922D01*
X140461005Y-49564924D01*
X140540024Y-49712758D01*
X140588687Y-49873177D01*
X140605117Y-50040000D01*
X140588687Y-50206823D01*
X140540024Y-50367242D01*
X140469114Y-50499906D01*
X140461004Y-50515078D01*
X140354659Y-50644659D01*
X140225078Y-50751004D01*
X140225076Y-50751005D01*
X140077242Y-50830024D01*
X139916823Y-50878687D01*
X139791804Y-50891000D01*
X139708196Y-50891000D01*
X139583177Y-50878687D01*
X139422758Y-50830024D01*
X139274924Y-50751005D01*
X139274922Y-50751004D01*
X139145341Y-50644659D01*
X139038996Y-50515078D01*
X139030886Y-50499906D01*
X138959976Y-50367242D01*
X138911313Y-50206823D01*
X138894883Y-50040000D01*
X138911313Y-49873177D01*
X138959976Y-49712758D01*
X139038995Y-49564924D01*
X139038996Y-49564922D01*
X139145341Y-49435341D01*
X139274922Y-49328996D01*
X139290094Y-49320886D01*
X139422758Y-49249976D01*
X139583177Y-49201313D01*
X139708196Y-49189000D01*
X139791804Y-49189000D01*
X139916823Y-49201313D01*
X139916823Y-49201313D01*
G37*
G36*
X140601000Y-48351000D02*
G01*
X138899000Y-48351000D01*
X138899000Y-46649000D01*
X140601000Y-46649000D01*
X140601000Y-48351000D01*
X140601000Y-48351000D01*
G37*
G36*
X147536823Y-46661313D02*
G01*
X147697242Y-46709976D01*
X147829906Y-46780886D01*
X147845078Y-46788996D01*
X147974659Y-46895341D01*
X148081004Y-47024922D01*
X148081005Y-47024924D01*
X148160024Y-47172758D01*
X148208687Y-47333177D01*
X148225117Y-47500000D01*
X148208687Y-47666823D01*
X148160024Y-47827242D01*
X148089114Y-47959906D01*
X148081004Y-47975078D01*
X147974659Y-48104659D01*
X147845078Y-48211004D01*
X147845076Y-48211005D01*
X147697242Y-48290024D01*
X147536823Y-48338687D01*
X147411804Y-48351000D01*
X147328196Y-48351000D01*
X147203177Y-48338687D01*
X147042758Y-48290024D01*
X146894924Y-48211005D01*
X146894922Y-48211004D01*
X146765341Y-48104659D01*
X146658996Y-47975078D01*
X146650886Y-47959906D01*
X146579976Y-47827242D01*
X146531313Y-47666823D01*
X146514883Y-47500000D01*
X146531313Y-47333177D01*
X146579976Y-47172758D01*
X146658995Y-47024924D01*
X146658996Y-47024922D01*
X146765341Y-46895341D01*
X146894922Y-46788996D01*
X146910094Y-46780886D01*
X147042758Y-46709976D01*
X147203177Y-46661313D01*
X147328196Y-46649000D01*
X147411804Y-46649000D01*
X147536823Y-46661313D01*
X147536823Y-46661313D01*
G37*
G36*
X137101000Y-48351000D02*
G01*
X135399000Y-48351000D01*
X135399000Y-46649000D01*
X137101000Y-46649000D01*
X137101000Y-48351000D01*
X137101000Y-48351000D01*
G37*
G36*
X144036823Y-46661313D02*
G01*
X144197242Y-46709976D01*
X144329906Y-46780886D01*
X144345078Y-46788996D01*
X144474659Y-46895341D01*
X144581004Y-47024922D01*
X144581005Y-47024924D01*
X144660024Y-47172758D01*
X144708687Y-47333177D01*
X144725117Y-47500000D01*
X144708687Y-47666823D01*
X144660024Y-47827242D01*
X144589114Y-47959906D01*
X144581004Y-47975078D01*
X144474659Y-48104659D01*
X144345078Y-48211004D01*
X144345076Y-48211005D01*
X144197242Y-48290024D01*
X144036823Y-48338687D01*
X143911804Y-48351000D01*
X143828196Y-48351000D01*
X143703177Y-48338687D01*
X143542758Y-48290024D01*
X143394924Y-48211005D01*
X143394922Y-48211004D01*
X143265341Y-48104659D01*
X143158996Y-47975078D01*
X143150886Y-47959906D01*
X143079976Y-47827242D01*
X143031313Y-47666823D01*
X143014883Y-47500000D01*
X143031313Y-47333177D01*
X143079976Y-47172758D01*
X143158995Y-47024924D01*
X143158996Y-47024922D01*
X143265341Y-46895341D01*
X143394922Y-46788996D01*
X143410094Y-46780886D01*
X143542758Y-46709976D01*
X143703177Y-46661313D01*
X143828196Y-46649000D01*
X143911804Y-46649000D01*
X144036823Y-46661313D01*
X144036823Y-46661313D01*
G37*
M02*
