M48
METRIC,TZ
T1C0.400
T2C0.800
%
G90
G05
T1
X141300Y-61950
X145150Y-64000
T2
X136250Y-47500
X136250Y-50040
X136250Y-52580
X136250Y-55120
X136250Y-57660
X136250Y-60200
X136250Y-62740
X136250Y-65280
X143870Y-47500
X143870Y-50040
X143870Y-52580
X143870Y-55120
X143870Y-57660
X143870Y-60200
X143870Y-62740
X143870Y-65280
X139750Y-47500
X139750Y-50040
X139750Y-52580
X139750Y-55120
X139750Y-57660
X139750Y-60200
X139750Y-62740
X139750Y-65280
X147370Y-47500
X147370Y-50040
X147370Y-52580
X147370Y-55120
X147370Y-57660
X147370Y-60200
X147370Y-62740
X147370Y-65280
T0
M30
