G04 #@! TF.GenerationSoftware,KiCad,Pcbnew,(5.1.4)-1*
G04 #@! TF.CreationDate,2021-07-19T20:27:01-04:00*
G04 #@! TF.ProjectId,9301_to_74ls42,39333031-5f74-46f5-9f37-346c7334322e,rev?*
G04 #@! TF.SameCoordinates,Original*
G04 #@! TF.FileFunction,Copper,L1,Top*
G04 #@! TF.FilePolarity,Positive*
%FSLAX46Y46*%
G04 Gerber Fmt 4.6, Leading zero omitted, Abs format (unit mm)*
G04 Created by KiCad (PCBNEW (5.1.4)-1) date 2021-07-19 20:27:01*
%MOMM*%
%LPD*%
G04 APERTURE LIST*
%ADD10O,1.600000X1.600000*%
%ADD11R,1.600000X1.600000*%
%ADD12C,0.800000*%
%ADD13C,0.250000*%
G04 APERTURE END LIST*
D10*
X143870000Y-47500000D03*
X136250000Y-65280000D03*
X143870000Y-50040000D03*
X136250000Y-62740000D03*
X143870000Y-52580000D03*
X136250000Y-60200000D03*
X143870000Y-55120000D03*
X136250000Y-57660000D03*
X143870000Y-57660000D03*
X136250000Y-55120000D03*
X143870000Y-60200000D03*
X136250000Y-52580000D03*
X143870000Y-62740000D03*
X136250000Y-50040000D03*
X143870000Y-65280000D03*
D11*
X136250000Y-47500000D03*
D10*
X147370000Y-47500000D03*
X139750000Y-65280000D03*
X147370000Y-50040000D03*
X139750000Y-62740000D03*
X147370000Y-52580000D03*
X139750000Y-60200000D03*
X147370000Y-55120000D03*
X139750000Y-57660000D03*
X147370000Y-57660000D03*
X139750000Y-55120000D03*
X147370000Y-60200000D03*
X139750000Y-52580000D03*
X147370000Y-62740000D03*
X139750000Y-50040000D03*
X147370000Y-65280000D03*
D11*
X139750000Y-47500000D03*
D12*
X145150000Y-64000000D03*
X141300000Y-61950000D03*
D13*
X143870000Y-47500000D02*
X147370000Y-47500000D01*
X146238630Y-50040000D02*
X143870000Y-50040000D01*
X147370000Y-50040000D02*
X146238630Y-50040000D01*
X136250000Y-62740000D02*
X137950000Y-64440000D01*
X137950000Y-64440000D02*
X137950000Y-66300000D01*
X137950000Y-66300000D02*
X138150000Y-66500000D01*
X138150000Y-66500000D02*
X145550000Y-66500000D01*
X145550000Y-66500000D02*
X145950000Y-66100000D01*
X145950000Y-61620000D02*
X147370000Y-60200000D01*
X145950000Y-66100000D02*
X145950000Y-61620000D01*
X147370000Y-52580000D02*
X143870000Y-52580000D01*
X136250000Y-60200000D02*
X138200000Y-62150000D01*
X138200000Y-62150000D02*
X138200000Y-63050000D01*
X138200000Y-63050000D02*
X139150000Y-64000000D01*
X139150000Y-64000000D02*
X145150000Y-64000000D01*
X142400000Y-53650000D02*
X143870000Y-55120000D01*
X142400000Y-47750000D02*
X142400000Y-53650000D01*
X139750000Y-47500000D02*
X142150000Y-47500000D01*
X142150000Y-47500000D02*
X142400000Y-47750000D01*
X137049999Y-58459999D02*
X137059999Y-58459999D01*
X136250000Y-57660000D02*
X137049999Y-58459999D01*
X137059999Y-58459999D02*
X138050000Y-59450000D01*
X138050000Y-59450000D02*
X138050000Y-60950000D01*
X138050000Y-60950000D02*
X138600000Y-61500000D01*
X138600000Y-61500000D02*
X140850000Y-61500000D01*
X140850000Y-61500000D02*
X141300000Y-61950000D01*
X140881370Y-50040000D02*
X141950000Y-51108630D01*
X139750000Y-50040000D02*
X140881370Y-50040000D01*
X141950000Y-55740000D02*
X143870000Y-57660000D01*
X141950000Y-51108630D02*
X141950000Y-55740000D01*
X140881370Y-52580000D02*
X141500000Y-53198630D01*
X139750000Y-52580000D02*
X140881370Y-52580000D01*
X141500000Y-57830000D02*
X143870000Y-60200000D01*
X141500000Y-53198630D02*
X141500000Y-57830000D01*
X139750000Y-55120000D02*
X141050000Y-56420000D01*
X143070001Y-61940001D02*
X143870000Y-62740000D01*
X141049991Y-59919991D02*
X143070001Y-61940001D01*
X141049991Y-57643599D02*
X141049991Y-59919991D01*
X141050000Y-57643590D02*
X141049991Y-57643599D01*
X141050000Y-56420000D02*
X141050000Y-57643590D01*
M02*
